<?xml version="1.0" encoding="iso-8859-1"?>
<!-- Generator: Adobe Illustrator 19.0.0, SVG Export Plug-In . SVG Version: 6.00 Build 0)  -->
<svg xmlns="http://www.w3.org/2000/svg" xmlns:xlink="http://www.w3.org/1999/xlink" version="1.1" id="Layer_1" x="0px" y="0px" viewBox="0 0 512.001 512.001" style="enable-background:new 0 0 512.001 512.001;" xml:space="preserve">
<path style="fill:#FD7555;" d="M511.718,268.596L511.718,268.596c-2.409-50.815-44.367-91.275-95.778-91.275  c-27.461,0-52.221,11.547-69.702,30.046c-1.833,1.94-4.882,1.94-6.715,0c-17.481-18.499-42.241-30.046-69.702-30.046  c-51.411,0-93.369,40.46-95.778,91.275l0,0c0,0-8.602,115.459,69.153,184.024c11.332,11.786,27.249,19.133,44.89,19.133  c21.108,0,39.763-10.501,51.028-26.563c1.844-2.63,5.69-2.63,7.534,0c11.265,16.062,29.919,26.563,51.028,26.563  c17.642,0,33.558-7.347,44.89-19.133C520.32,384.056,511.718,268.596,511.718,268.596z"/>
<path style="fill:#EF431D;" d="M442.562,452.622c-11.329,11.784-27.246,19.132-44.885,19.132c-4.218,0-8.343-0.422-12.324-1.223  c5.34-2.995,10.19-6.765,14.399-11.152c77.758-68.563,69.154-184.028,69.154-184.028c-2.295-48.555-40.701-87.644-88.969-91.035  c11.118-4.513,23.265-6.993,36.003-6.993c51.414,0,93.372,40.456,95.776,91.272C511.716,268.594,520.321,384.058,442.562,452.622z"/>
<path style="fill:#B0E046;" d="M485.629,57.667c-2.442-1.674-6.807-4.485-12.661-7.531c-52.826-27.484-117.355,5.057-126.662,63.873  c-1.645,10.396-1.517,17.392-1.517,17.392s5.548,4.262,14.886,9.12c52.826,27.484,117.355-5.057,126.662-63.873  c1.031-6.518,1.366-11.699,1.472-14.658C487.871,60.267,487.051,58.642,485.629,57.667z"/>
<path style="fill:#A4C93D;" d="M359.676,140.526c-9.336-4.859-14.886-9.126-14.886-9.126s-0.083-4.725,0.791-12.175  c1.418,0.81,2.957,1.66,4.626,2.524c52.828,27.474,117.35-5.063,126.666-63.875c0.298-1.855,0.529-3.598,0.721-5.22  c3.554,2.034,6.286,3.815,8.033,5.013c1.414,0.969,2.244,2.584,2.184,4.297c-0.104,2.955-0.435,8.15-1.469,14.687  C477.026,135.463,412.504,168,359.676,140.526z"/>
<g>
	<circle style="fill:#EF431D;" cx="246.599" cy="402.9" r="8.832"/>
	<circle style="fill:#EF431D;" cx="271.289" cy="427.59" r="8.832"/>
	<circle style="fill:#EF431D;" cx="415.349" cy="221.9" r="8.832"/>
</g>
<path style="fill:#FD7555;" d="M255.498,318.165L255.498,318.165c-1.821-38.417-33.542-69.005-72.409-69.005  c-20.761,0-39.48,8.73-52.695,22.715c-1.386,1.467-3.691,1.467-5.077,0c-13.216-13.986-31.935-22.715-52.695-22.715  c-38.867,0-70.588,30.588-72.409,69.005l0,0c0,0-6.503,87.288,52.28,139.124c8.567,8.91,20.6,14.465,33.937,14.465  c15.958,0,30.061-7.939,38.577-20.082c1.394-1.988,4.301-1.988,5.696,0c8.516,12.143,22.619,20.082,38.577,20.082  c13.337,0,25.37-5.554,33.937-14.465C262.001,405.453,255.498,318.165,255.498,318.165z"/>
<path style="fill:#EF431D;" d="M203.216,457.29c-8.565,8.909-20.599,14.464-33.934,14.464c-3.189,0-6.307-0.319-9.317-0.925  c4.037-2.264,7.704-5.115,10.886-8.431c58.786-51.835,52.281-139.127,52.281-139.127c-1.735-36.708-30.77-66.26-67.261-68.824  c8.405-3.412,17.589-5.287,27.218-5.287c38.87,0,70.59,30.585,72.408,69.002C255.497,318.163,262.002,405.454,203.216,457.29z"/>
<path style="fill:#B0E046;" d="M235.775,158.28c-1.846-1.265-5.146-3.391-9.572-5.693c-39.937-20.778-88.722,3.823-95.758,48.288  c-1.244,7.86-1.147,13.148-1.147,13.148s4.195,3.222,11.254,6.895c39.937,20.778,88.722-3.823,95.758-48.288  c0.78-4.928,1.032-8.845,1.113-11.081C237.469,160.246,236.85,159.017,235.775,158.28z"/>
<path style="fill:#A4C93D;" d="M140.553,220.922c-7.058-3.673-11.254-6.899-11.254-6.899s-0.063-3.572,0.598-9.205  c1.072,0.612,2.236,1.255,3.497,1.908c39.938,20.771,88.718-3.828,95.761-48.29c0.225-1.402,0.4-2.72,0.545-3.946  c2.687,1.538,4.752,2.884,6.073,3.79c1.069,0.733,1.696,1.954,1.651,3.249c-0.078,2.234-0.329,6.161-1.111,11.104  C229.271,217.094,180.491,241.693,140.553,220.922z"/>
<g>
	<circle style="fill:#EF431D;" cx="57.029" cy="404.94" r="8.832"/>
	<circle style="fill:#EF431D;" cx="81.719" cy="429.63" r="8.832"/>
	<circle style="fill:#EF431D;" cx="180.819" cy="292.89" r="8.832"/>
</g>
<g>
	<path style="fill:#43A838;" d="M342.753,216.155c-0.299,0-0.601-0.018-0.905-0.055c-4.112-0.495-7.045-4.229-6.551-8.341   c3.548-29.548,6.035-110.028-24.651-127.359c-3.606-2.037-4.879-6.612-2.842-10.219c2.037-3.606,6.612-4.879,10.219-2.842   c19.693,11.123,31.025,38.819,33.68,82.321c1.896,31.066-1.373,58.73-1.513,59.893C349.73,213.359,346.494,216.155,342.753,216.155   z"/>
	<path style="fill:#43A838;" d="M127.761,280.35c-0.299,0-0.602-0.018-0.907-0.055c-4.112-0.496-7.044-4.231-6.549-8.344   c0.038-0.316,2.442-20.843,1.062-43.1c-1.689-27.241-8.359-45.486-18.782-51.373c-3.606-2.037-4.879-6.612-2.842-10.219   c2.037-3.606,6.613-4.881,10.219-2.842c15.463,8.733,24.342,30.171,26.389,63.718c1.443,23.65-1.047,44.724-1.154,45.61   C134.739,277.553,131.502,280.35,127.761,280.35z"/>
</g>
<g>
</g>
<g>
</g>
<g>
</g>
<g>
</g>
<g>
</g>
<g>
</g>
<g>
</g>
<g>
</g>
<g>
</g>
<g>
</g>
<g>
</g>
<g>
</g>
<g>
</g>
<g>
</g>
<g>
</g>
</svg>
